# xmcd
#
# Track frame offsets: 
#        150
#        12956
#        29791
#        48204
#        76010
#        91598
#        109501
#        135030
#        153585
#        184021
#        209398
#        232724
#        250768
#        263182
#        277387
#
# Disc length: 3970 seconds
#
# Revision: 5
# Processed by: cddbd v1.5.2PL0 Copyright (c) Steve Scherf et al.
# Submitted via: ExactAudioCopyFreeDBPlugin 1.0
#
DISCID=b60f800f
DTITLE=Various Artist - Best Jazz 50 (Jazz Ballads CD3)
DYEAR=2006
DGENRE=Jazz Ballads
TTITLE0=Coleman Hawkins - Someone To Watch Over Me
TTITLE1=Clifford Brown - Easy Living
TTITLE2=Miles Davis - It Never Entered My Mind
TTITLE3=Jutta Hipp and Zoot Sims - Violets For Your Furs
TTITLE4=Benny Goodman - Moonglow
TTITLE5=George Shearing - Like Someone In Love
TTITLE6=Bill Evans and Jim Hall - Stairway To The Stars
TTITLE7=Cannonball Adderley - Dancing In The Dark
TTITLE8=Dexter Gordon - I'm A Fool To Want You
TTITLE9=Stan Kenton And His Orchestra - Yesterdays
TTITLE10=Hank Mobley - The Good Life
TTITLE11=Stanley Turrentine - God Bless The Child
TTITLE12=Ike Quebec - Nature Boy
TTITLE13=Zoot Sims - Spring Can Really Hang You Up The Most
TTITLE14=Joe Lovano - Laura
EXTD=YEAR: 2006
EXTT0=
EXTT1=
EXTT2=
EXTT3=
EXTT4=
EXTT5=
EXTT6=
EXTT7=
EXTT8=
EXTT9=
EXTT10=
EXTT11=
EXTT12=
EXTT13=
EXTT14=
PLAYORDER=
